<svg width="1280" height="720" viewBox="0 0 1280 720" fill="none" xmlns="http://www.w3.org/2000/svg">
  <defs>
    <linearGradient id="bg" x1="120" y1="40" x2="1120" y2="680" gradientUnits="userSpaceOnUse">
      <stop stop-color="#0B1220"/>
      <stop offset="1" stop-color="#111C33"/>
    </linearGradient>
    <linearGradient id="panel" x1="760" y1="88" x2="1124" y2="620" gradientUnits="userSpaceOnUse">
      <stop stop-color="#172554"/>
      <stop offset="1" stop-color="#0F172A"/>
    </linearGradient>
    <linearGradient id="card" x1="80" y1="200" x2="640" y2="620" gradientUnits="userSpaceOnUse">
      <stop stop-color="#13213B"/>
      <stop offset="1" stop-color="#0F172A"/>
    </linearGradient>
    <filter id="shadow" x="0" y="0" width="1280" height="720" filterUnits="userSpaceOnUse" color-interpolation-filters="sRGB">
      <feDropShadow dx="0" dy="24" stdDeviation="24" flood-color="#020617" flood-opacity="0.35"/>
    </filter>
  </defs>

  <rect width="1280" height="720" rx="32" fill="url(#bg)"/>
  <circle cx="140" cy="110" r="150" fill="#1D4ED8" fill-opacity="0.12"/>
  <circle cx="1180" cy="620" r="170" fill="#14B8A6" fill-opacity="0.10"/>

  <g filter="url(#shadow)">
    <rect x="62" y="84" width="596" height="560" rx="28" fill="url(#card)" stroke="#1E293B"/>
    <rect x="720" y="84" width="500" height="560" rx="28" fill="url(#panel)" stroke="#1E293B"/>
  </g>

  <text x="108" y="160" fill="#93C5FD" font-family="Segoe UI, Arial, sans-serif" font-size="18" font-weight="700">META ADS WEEKLY REPORT KIT</text>
  <text x="108" y="224" fill="#F8FAFC" font-family="Segoe UI, Arial, sans-serif" font-size="48" font-weight="700">From CSV</text>
  <text x="108" y="282" fill="#F8FAFC" font-family="Segoe UI, Arial, sans-serif" font-size="48" font-weight="700">to a polished weekly report</text>
  <text x="108" y="338" fill="#94A3B8" font-family="Segoe UI, Arial, sans-serif" font-size="23">Clean the export, calculate KPI, render charts,</text>
  <text x="108" y="372" fill="#94A3B8" font-family="Segoe UI, Arial, sans-serif" font-size="23">and deliver HTML + Excel in one small CLI tool.</text>

  <rect x="108" y="430" width="166" height="44" rx="22" fill="#2563EB"/>
  <text x="141" y="458" fill="#F8FAFC" font-family="Segoe UI, Arial, sans-serif" font-size="20" font-weight="700">Meta Ads CSV</text>

  <rect x="286" y="430" width="138" height="44" rx="22" fill="#0F766E"/>
  <text x="315" y="458" fill="#F8FAFC" font-family="Segoe UI, Arial, sans-serif" font-size="20" font-weight="700">HTML + XLSX</text>

  <rect x="436" y="430" width="124" height="44" rx="22" fill="#111827" stroke="#334155"/>
  <text x="465" y="458" fill="#E5E7EB" font-family="Segoe UI, Arial, sans-serif" font-size="20" font-weight="700">Python CLI</text>

  <text x="108" y="534" fill="#E2E8F0" font-family="Segoe UI, Arial, sans-serif" font-size="22" font-weight="700">What it delivers</text>
  <text x="108" y="574" fill="#CBD5E1" font-family="Segoe UI, Arial, sans-serif" font-size="21">• KPI summary cards and trend charts</text>
  <text x="108" y="608" fill="#CBD5E1" font-family="Segoe UI, Arial, sans-serif" font-size="21">• Top campaigns table and anomaly hints</text>
  <text x="108" y="642" fill="#CBD5E1" font-family="Segoe UI, Arial, sans-serif" font-size="21">• A clean workbook for follow-up analysis</text>

  <text x="760" y="136" fill="#E2E8F0" font-family="Segoe UI, Arial, sans-serif" font-size="24" font-weight="700">Weekly Performance Report</text>
  <text x="760" y="168" fill="#94A3B8" font-family="Segoe UI, Arial, sans-serif" font-size="16">Level: campaign   •   Last 7 days</text>

  <rect x="760" y="202" width="102" height="88" rx="18" fill="#101826" stroke="#1E293B"/>
  <rect x="878" y="202" width="102" height="88" rx="18" fill="#101826" stroke="#1E293B"/>
  <rect x="996" y="202" width="102" height="88" rx="18" fill="#101826" stroke="#1E293B"/>
  <rect x="1114" y="202" width="72" height="88" rx="18" fill="#101826" stroke="#1E293B"/>

  <text x="778" y="232" fill="#64748B" font-family="Segoe UI, Arial, sans-serif" font-size="13">Spend</text>
  <text x="778" y="265" fill="#F8FAFC" font-family="Segoe UI, Arial, sans-serif" font-size="26" font-weight="700">$1,990</text>

  <text x="896" y="232" fill="#64748B" font-family="Segoe UI, Arial, sans-serif" font-size="13">Clicks</text>
  <text x="896" y="265" fill="#F8FAFC" font-family="Segoe UI, Arial, sans-serif" font-size="26" font-weight="700">3,945</text>

  <text x="1014" y="232" fill="#64748B" font-family="Segoe UI, Arial, sans-serif" font-size="13">CTR</text>
  <text x="1014" y="265" fill="#F8FAFC" font-family="Segoe UI, Arial, sans-serif" font-size="26" font-weight="700">2.58%</text>

  <text x="1130" y="232" fill="#64748B" font-family="Segoe UI, Arial, sans-serif" font-size="13">CPC</text>
  <text x="1129" y="265" fill="#F8FAFC" font-family="Segoe UI, Arial, sans-serif" font-size="22" font-weight="700">$0.50</text>

  <rect x="760" y="324" width="426" height="150" rx="20" fill="#101826" stroke="#1E293B"/>
  <text x="782" y="354" fill="#E2E8F0" font-family="Segoe UI, Arial, sans-serif" font-size="18" font-weight="700">Trend preview</text>
  <path d="M790 426C830 406 874 450 914 430C954 410 990 355 1032 362C1070 369 1112 410 1152 396" stroke="#60A5FA" stroke-width="6" stroke-linecap="round"/>
  <path d="M790 438C826 444 872 424 912 438C954 452 990 474 1030 458C1070 442 1110 426 1152 412" stroke="#14B8A6" stroke-width="6" stroke-linecap="round"/>
  <circle cx="914" cy="430" r="5" fill="#60A5FA"/>
  <circle cx="1032" cy="362" r="5" fill="#60A5FA"/>
  <circle cx="1030" cy="458" r="5" fill="#14B8A6"/>

  <rect x="760" y="496" width="426" height="110" rx="20" fill="#101826" stroke="#1E293B"/>
  <text x="782" y="526" fill="#E2E8F0" font-family="Segoe UI, Arial, sans-serif" font-size="18" font-weight="700">Top campaigns</text>
  <text x="782" y="558" fill="#64748B" font-family="Segoe UI, Arial, sans-serif" font-size="14">Campaign</text>
  <text x="1030" y="558" fill="#64748B" font-family="Segoe UI, Arial, sans-serif" font-size="14">Spend</text>
  <text x="1110" y="558" fill="#64748B" font-family="Segoe UI, Arial, sans-serif" font-size="14">CTR</text>
  <line x1="782" y1="571" x2="1164" y2="571" stroke="#1E293B"/>
  <text x="782" y="592" fill="#CBD5E1" font-family="Segoe UI, Arial, sans-serif" font-size="15">Brand Prospecting</text>
  <text x="1030" y="592" fill="#CBD5E1" font-family="Segoe UI, Arial, sans-serif" font-size="15">$620</text>
  <text x="1110" y="592" fill="#CBD5E1" font-family="Segoe UI, Arial, sans-serif" font-size="15">3.1%</text>
</svg>
