<svg xmlns="http://www.w3.org/2000/svg" viewBox="0 0 800 560" font-family="ui-sans-serif, system-ui, -apple-system, sans-serif">
  <defs>
    <linearGradient id="bg" x1="0" y1="0" x2="0" y2="1">
      <stop offset="0%" stop-color="#070b14"/>
      <stop offset="40%" stop-color="#0b1220"/>
    </linearGradient>
  </defs>

  <!-- Background -->
  <rect width="800" height="560" rx="18" fill="url(#bg)"/>

  <!-- Header -->
  <text x="40" y="42" fill="#e2e8f0" font-size="18" font-weight="600">KPI Definitions (Meta-aligned)</text>
  <rect x="640" y="24" width="120" height="24" rx="12" fill="none" stroke="#60a5fa" stroke-opacity="0.35"/>
  <text x="700" y="41" fill="#60a5fa" font-size="12" text-anchor="middle">KaTeX rendered</text>

  <!-- Panel -->
  <rect x="36" y="58" width="728" height="478" rx="14" fill="rgba(17,26,46,0.55)" stroke="#1f2a44" stroke-width="1"/>

  <!-- Row 1: CTR -->
  <rect x="56" y="78" width="688" height="96" rx="10" fill="rgba(255,255,255,0.025)"/>
  <text x="80" y="104" fill="#e2e8f0" font-size="16" font-weight="500" font-style="italic" font-family="KaTeX_Main, Times, serif">CTR</text>
  <text x="80" y="104" fill="#e2e8f0" font-size="16" font-style="italic">CTR</text>
  <text x="155" y="104" fill="#e2e8f0" font-size="16">=</text>
  <text x="185" y="98" fill="#e2e8f0" font-size="16" font-family="KaTeX_Main, Times, serif">link_clicks</text>
  <line x1="180" y1="107" x2="340" y2="107" stroke="#e2e8f0" stroke-opacity="0.45" stroke-width="1"/>
  <text x="192" y="120" fill="#e2e8f0" font-size="16" font-family="KaTeX_Main, Times, serif">impressions</text>
  <text x="360" y="130" fill="#94a3b8" font-size="13">Link click-through rate. If impressions = 0, returns 0.</text>

  <!-- Row 2: CPC -->
  <rect x="56" y="184" width="688" height="96" rx="10" fill="rgba(255,255,255,0.025)"/>
  <text x="80" y="210" fill="#e2e8f0" font-size="16">CPC</text>
  <text x="155" y="210" fill="#e2e8f0" font-size="16">=</text>
  <text x="185" y="204" fill="#e2e8f0" font-size="16" font-family="KaTeX_Main, Times, serif">spend</text>
  <line x1="180" y1="213" x2="280" y2="213" stroke="#e2e8f0" stroke-opacity="0.45" stroke-width="1"/>
  <text x="192" y="226" fill="#e2e8f0" font-size="16" font-family="KaTeX_Main, Times, serif">link_clicks</text>
  <text x="300" y="236" fill="#94a3b8" font-size="13">Cost per link click. If link_clicks = 0, returns N/A.</text>

  <!-- Row 3: CPM -->
  <rect x="56" y="290" width="688" height="96" rx="10" fill="rgba(255,255,255,0.025)"/>
  <text x="80" y="316" fill="#e2e8f0" font-size="16">CPM</text>
  <text x="155" y="316" fill="#e2e8f0" font-size="16">=</text>
  <text x="185" y="310" fill="#e2e8f0" font-size="16" font-family="KaTeX_Main, Times, serif">spend</text>
  <line x1="180" y1="319" x2="290" y2="319" stroke="#e2e8f0" stroke-opacity="0.45" stroke-width="1"/>
  <text x="192" y="332" fill="#e2e8f0" font-size="16" font-family="KaTeX_Main, Times, serif">impressions</text>
  <text x="300" y="322" fill="#e2e8f0" font-size="16"> × 1000</text>
  <text x="380" y="342" fill="#94a3b8" font-size="13">Cost per 1,000 impressions. If impressions = 0, returns N/A.</text>

  <!-- Row 4: ROAS -->
  <rect x="56" y="396" width="688" height="120" rx="10" fill="rgba(255,255,255,0.025)"/>
  <text x="80" y="422" fill="#e2e8f0" font-size="16">ROAS</text>
  <text x="155" y="422" fill="#e2e8f0" font-size="16">=</text>

  <!-- Left brace -->
  <text x="175" y="432" fill="#e2e8f0" font-size="28">⎧</text>
  <text x="175" y="492" fill="#e2e8f0" font-size="28">⎩</text>

  <!-- Case 1 -->
  <text x="200" y="432" fill="#e2e8f0" font-size="14" font-family="KaTeX_Main, Times, serif">website_purchase_roas</text>
  <text x="428" y="432" fill="#94a3b8" font-size="13">(Meta weighted)</text>
  <text x="200" y="450" fill="#94a3b8" font-size="12">if website_purchase_roas column available in export</text>

  <!-- Case 2 -->
  <text x="200" y="480" fill="#e2e8f0" font-size="14" font-family="KaTeX_Main, Times, serif">purchase_value</text>
  <line x1="195" y1="470" x2="358" y2="470" stroke="#e2e8f0" stroke-opacity="0.45" stroke-width="1"/>
  <text x="210" y="485" fill="#e2e8f0" font-size="14" font-family="KaTeX_Main, Times, serif">spend</text>
  <text x="375" y="485" fill="#94a3b8" font-size="13">(derived, otherwise)</text>

  <text x="535" y="502" fill="#94a3b8" font-size="13">Prioritizes Meta's ROAS metric; falls back to purchase_value / spend.</text>
</svg>
